<svg width="14" height="18" viewBox="0 0 14 18" fill="none" xmlns="http://www.w3.org/2000/svg">
<path d="M13.6863 5.42773L9.3166 1.05803C9.31035 1.05177 9.30356 1.04628 9.29707 1.04033C9.28864 1.03259 9.28044 1.02457 9.27159 1.01729C9.26572 1.01248 9.25942 1.00829 9.2534 1.00367C9.24317 0.99585 9.23306 0.987915 9.22238 0.980705C9.21754 0.977462 9.21239 0.974755 9.2075 0.971664C9.1951 0.963845 9.18271 0.956063 9.16974 0.949081C9.16623 0.947213 9.16257 0.945763 9.15906 0.94397C9.14441 0.936416 9.1296 0.929169 9.11431 0.922798C9.11194 0.921806 9.10943 0.921079 9.10702 0.920127C9.09058 0.913527 9.07391 0.907348 9.05682 0.902159C9.05434 0.901395 9.05179 0.900937 9.04931 0.900212C9.03237 0.895291 9.01524 0.890752 8.99769 0.887244C8.99212 0.886137 8.98637 0.885641 8.98076 0.884688C8.96626 0.88217 8.95184 0.879614 8.93708 0.878165C8.91633 0.876057 8.89549 0.875001 8.87463 0.875H1.37402C1.04262 0.875379 0.724897 1.0072 0.490558 1.24154C0.25622 1.47587 0.124402 1.7936 0.124023 2.125V15.875C0.124402 16.2064 0.25622 16.5241 0.490558 16.7585C0.724897 16.9928 1.04262 17.1246 1.37402 17.125H12.6246C12.956 17.1246 13.2738 16.9928 13.5081 16.7585C13.7424 16.5241 13.8743 16.2064 13.8746 15.875V5.88709C13.8747 5.88301 13.8752 5.87908 13.8752 5.875C13.8753 5.79159 13.8586 5.70902 13.8262 5.63219C13.7937 5.55536 13.7461 5.48583 13.6863 5.42773ZM9.62907 11.6295L7.44157 13.817C7.43977 13.8188 7.43775 13.8203 7.43596 13.8221C7.42307 13.8346 7.40983 13.8468 7.3959 13.8582C7.38827 13.8645 7.38019 13.87 7.37233 13.8759C7.36386 13.8822 7.35555 13.8888 7.34673 13.8947C7.33765 13.9008 7.32819 13.906 7.31885 13.9116C7.31068 13.9165 7.30271 13.9216 7.29428 13.9261C7.2849 13.9312 7.27521 13.9354 7.26563 13.9399C7.25671 13.9441 7.24793 13.9486 7.23882 13.9524C7.22958 13.9562 7.22012 13.9593 7.21074 13.9627C7.2009 13.9662 7.19113 13.97 7.18106 13.973C7.17171 13.9759 7.16222 13.9779 7.15276 13.9803C7.14246 13.9829 7.13223 13.9858 7.12174 13.9879C7.11083 13.9901 7.09984 13.9913 7.0889 13.9929C7.07966 13.9942 7.07062 13.996 7.06132 13.9969C7.04079 13.9989 7.02023 14 6.99963 14C6.97903 14 6.95847 13.9989 6.93795 13.9969C6.92864 13.996 6.9196 13.9942 6.91037 13.9929C6.89942 13.9913 6.88844 13.99 6.87753 13.9879C6.86704 13.9858 6.85681 13.9829 6.84651 13.9803C6.83705 13.9779 6.82755 13.9759 6.81821 13.973C6.80814 13.97 6.79837 13.9662 6.78853 13.9626C6.77914 13.9593 6.76968 13.9562 6.76045 13.9524C6.75134 13.9486 6.74256 13.9441 6.73363 13.9399C6.72406 13.9354 6.71437 13.9312 6.70499 13.9261C6.69656 13.9216 6.68858 13.9165 6.68042 13.9116C6.67107 13.906 6.66161 13.9008 6.65253 13.8947C6.64372 13.8888 6.63541 13.8822 6.62694 13.8758C6.61908 13.87 6.61099 13.8645 6.60336 13.8582C6.58971 13.847 6.5767 13.835 6.56403 13.8227C6.56197 13.8207 6.55972 13.819 6.5577 13.817L4.3702 11.6295C4.25299 11.5123 4.18714 11.3533 4.18713 11.1875C4.18713 11.0218 4.25297 10.8628 4.37018 10.7456C4.48739 10.6284 4.64636 10.5625 4.81212 10.5625C4.97788 10.5625 5.13685 10.6284 5.25407 10.7456L6.37463 11.8661V8.375C6.37463 8.20924 6.44048 8.05027 6.55769 7.93306C6.6749 7.81585 6.83387 7.75 6.99963 7.75C7.16539 7.75 7.32437 7.81585 7.44158 7.93306C7.55879 8.05027 7.62463 8.20924 7.62463 8.375V11.8661L8.7452 10.7456C8.80324 10.6875 8.87214 10.6415 8.94797 10.6101C9.0238 10.5787 9.10507 10.5625 9.18715 10.5625C9.26922 10.5625 9.3505 10.5787 9.42632 10.6101C9.50215 10.6415 9.57105 10.6875 9.62909 10.7456C9.68712 10.8036 9.73316 10.8725 9.76457 10.9484C9.79597 11.0242 9.81214 11.1055 9.81213 11.1875C9.81213 11.2696 9.79597 11.3509 9.76455 11.4267C9.73314 11.5025 9.6871 11.5714 9.62907 11.6295V11.6295ZM8.87463 5.875V2.38387L12.3657 5.875H8.87463Z" fill="white"/>
</svg>
