<svg width="895" height="760" viewBox="0 0 895 760" fill="none" xmlns="http://www.w3.org/2000/svg">
<g opacity="0.06">
<path d="M-73.1426 -18.4544L981.256 732.85" stroke="#3C64B1"/>
<path d="M-31.9551 -47.8022L1022.44 703.502" stroke="#3C64B1"/>
<path d="M9.23242 -77.15L1063.63 674.155" stroke="#3C64B1"/>
<path d="M50.4199 -106.498L1104.82 644.807" stroke="#3C64B1"/>
<path d="M91.6074 -135.846L1146.01 615.459" stroke="#3C64B1"/>
<path d="M132.795 -165.194L1187.19 586.111" stroke="#3C64B1"/>
<path d="M173.982 -194.541L1228.38 556.763" stroke="#3C64B1"/>
<path d="M215.17 -223.889L1269.57 527.415" stroke="#3C64B1"/>
<path d="M256.357 -253.237L1310.76 498.067" stroke="#3C64B1"/>
<path d="M297.544 -282.585L1351.94 468.72" stroke="#3C64B1"/>
<path d="M338.732 -311.933L1393.13 439.372" stroke="#3C64B1"/>
<path d="M379.919 -341.281L1434.32 410.024" stroke="#3C64B1"/>
<path d="M421.107 -370.628L1475.5 380.676" stroke="#3C64B1"/>
<path d="M-114.33 10.8935L940.068 762.198" stroke="#3C64B1"/>
<path d="M-155.517 40.2413L898.881 791.546" stroke="#3C64B1"/>
<path d="M-196.705 69.5891L857.693 820.894" stroke="#3C64B1"/>
<path d="M-237.892 98.937L816.506 850.242" stroke="#3C64B1"/>
<path d="M-279.08 128.285L775.319 879.589" stroke="#3C64B1"/>
<path d="M-320.267 157.633L734.131 908.937" stroke="#3C64B1"/>
<path d="M-361.455 186.98L692.944 938.285" stroke="#3C64B1"/>
<path d="M-402.642 216.328L651.756 967.633" stroke="#3C64B1"/>
<path d="M-443.829 245.676L610.569 996.981" stroke="#3C64B1"/>
<path d="M-485.017 275.024L569.381 1026.33" stroke="#3C64B1"/>
<path d="M-526.204 304.372L528.194 1055.68" stroke="#3C64B1"/>
<path d="M-567.392 333.72L487.007 1085.02" stroke="#3C64B1"/>
<path d="M-608.579 363.067L445.819 1114.37" stroke="#3C64B1"/>
</g>
</svg>
