<svg width="895" height="760" viewBox="0 0 895 760" fill="none" xmlns="http://www.w3.org/2000/svg">
<g opacity="0.06">
<path d="M-52.5488 -33.1283L1001.85 718.176" stroke="#3C64B1"/>
<path d="M-11.3613 -62.4762L1043.04 688.828" stroke="#3C64B1"/>
<path d="M29.8262 -91.824L1084.22 659.481" stroke="#3C64B1"/>
<path d="M71.0137 -121.172L1125.41 630.133" stroke="#3C64B1"/>
<path d="M112.201 -150.52L1166.6 600.785" stroke="#3C64B1"/>
<path d="M153.388 -179.867L1207.79 571.437" stroke="#3C64B1"/>
<path d="M194.576 -209.215L1248.97 542.089" stroke="#3C64B1"/>
<path d="M235.763 -238.563L1290.16 512.741" stroke="#3C64B1"/>
<path d="M276.951 -267.911L1331.35 483.394" stroke="#3C64B1"/>
<path d="M318.138 -297.259L1372.54 454.046" stroke="#3C64B1"/>
<path d="M359.325 -326.607L1413.72 424.698" stroke="#3C64B1"/>
<path d="M400.513 -355.954L1454.91 395.35" stroke="#3C64B1"/>
<path d="M441.7 -385.302L1496.1 366.002" stroke="#3C64B1"/>
<path d="M-93.7361 -3.78049L960.662 747.524" stroke="#3C64B1"/>
<path d="M-134.924 25.5673L919.475 776.872" stroke="#3C64B1"/>
<path d="M-176.111 54.9152L878.287 806.22" stroke="#3C64B1"/>
<path d="M-217.299 84.263L837.1 835.568" stroke="#3C64B1"/>
<path d="M-258.486 113.611L795.912 864.915" stroke="#3C64B1"/>
<path d="M-299.673 142.959L754.725 894.263" stroke="#3C64B1"/>
<path d="M-340.861 172.306L713.537 923.611" stroke="#3C64B1"/>
<path d="M-382.048 201.654L672.35 952.959" stroke="#3C64B1"/>
<path d="M-423.236 231.002L631.163 982.307" stroke="#3C64B1"/>
<path d="M-464.423 260.35L589.975 1011.65" stroke="#3C64B1"/>
<path d="M-505.611 289.698L548.788 1041" stroke="#3C64B1"/>
<path d="M-546.798 319.046L507.6 1070.35" stroke="#3C64B1"/>
<path d="M-587.985 348.394L466.413 1099.7" stroke="#3C64B1"/>
</g>
</svg>
