<svg width="18" height="16" viewBox="0 0 18 16" fill="none" xmlns="http://www.w3.org/2000/svg">
<path d="M15.4583 3.625H14.625V1.125C14.625 0.95924 14.5591 0.80027 14.4419 0.68306C14.3247 0.56585 14.1658 0.500002 14 0.5H4C3.83424 0.500002 3.67527 0.56585 3.55806 0.68306C3.44085 0.80027 3.375 0.95924 3.375 1.125V3.625H2.54168C1.45037 3.625 0.5625 4.46614 0.5625 5.5V11.75C0.562502 11.9158 0.62835 12.0747 0.74556 12.1919C0.86277 12.3091 1.02174 12.375 1.1875 12.375H3.375V15.1875C3.375 15.3533 3.44085 15.5122 3.55806 15.6294C3.67527 15.7466 3.83424 15.8125 4 15.8125H14C14.1658 15.8125 14.3247 15.7466 14.4419 15.6294C14.5591 15.5122 14.625 15.3533 14.625 15.1875V12.375H16.8125C16.9783 12.375 17.1372 12.3091 17.2544 12.1919C17.3716 12.0747 17.4375 11.9158 17.4375 11.75V5.5C17.4375 4.46614 16.5496 3.625 15.4583 3.625ZM4.625 1.75H13.375V3.625H4.625V1.75ZM13.375 14.5625H4.625V10.5H13.375V14.5625ZM13.6875 8C13.5021 8 13.3208 7.94502 13.1667 7.842C13.0125 7.73899 12.8923 7.59257 12.8214 7.42127C12.7504 7.24996 12.7318 7.06146 12.768 6.8796C12.8042 6.69775 12.8935 6.5307 13.0246 6.39959C13.1557 6.26848 13.3227 6.17919 13.5046 6.14301C13.6865 6.10684 13.875 6.12541 14.0463 6.19636C14.2176 6.26732 14.364 6.38748 14.467 6.54165C14.57 6.69582 14.625 6.87708 14.625 7.0625C14.625 7.18561 14.6007 7.30752 14.5536 7.42127C14.5065 7.53501 14.4375 7.63836 14.3504 7.72541C14.2634 7.81247 14.16 7.88152 14.0463 7.92864C13.9325 7.97575 13.8106 8 13.6875 8Z" fill="white"/>
</svg>
