<svg width="14" height="14" viewBox="0 0 14 14" fill="none" xmlns="http://www.w3.org/2000/svg">
<path d="M10.5103 7.2784C10.6607 7.1248 10.6607 6.8736 10.5103 6.72L5.93754 2.0128C5.78714 1.8592 5.54554 1.8592 5.39514 2.0128L4.48634 2.9488C4.33594 3.1024 4.33594 3.3536 4.48634 3.5072L6.64954 5.7328H0.823941C0.612741 5.7328 0.439941 5.9088 0.439941 6.128V7.7056C0.439941 7.9232 0.612741 8.1008 0.823941 8.1008H6.80954L4.48634 10.4928C4.33594 10.6464 4.33594 10.8976 4.48634 11.0512L5.39514 11.9872C5.54554 12.1408 5.78714 12.1408 5.93754 11.9872L10.5103 7.2784ZM8.30554 1.944H11.6095V12.0576H8.30554V14H12.5807C13.1183 14 13.5519 13.5664 13.5519 13.0272V0.9728C13.5519 0.4352 13.1183 0 12.5807 0H8.30554V1.944Z" fill="white"/>
</svg>
